<svg width="101" height="22" viewBox="0 0 101 22" fill="none" xmlns="http://www.w3.org/2000/svg">
<g style="mix-blend-mode:color-dodge">
<path d="M4.77192 12.1532C4.07543 13.037 3.23239 13.2641 2.27751 12.8726C1.32723 12.483 0.931251 11.7162 0.931641 10.691C0.932929 7.29442 3.36298 3.79248 6.61224 2.54964C10.0828 1.22215 14.0805 2.09899 16.4834 4.70871C18.0888 6.45227 18.9818 8.47631 18.9431 10.8685C18.9237 12.0668 18.2315 12.8735 17.1069 13.0279C16.1036 13.1657 15.1492 12.5175 14.816 11.455C14.7318 11.1866 14.6665 10.906 14.6407 10.6266C14.406 8.08274 12.4204 6.21991 9.941 6.2295C7.4811 6.23901 5.47662 8.12912 5.24805 10.6608C5.20211 11.1696 5.07774 11.6508 4.77192 12.1532Z" fill="url(#paint0_linear_66_333)"/>
<path d="M15.9814 15.5512C19.2879 15.7098 20.9699 14.3511 21.5422 11.1299C21.6758 10.3779 21.8039 9.62145 22.5339 9.18071C23.2568 8.74425 24.0124 8.63495 24.7819 9.06624C25.5475 9.49525 25.9068 10.2051 25.8828 11.0309C25.7639 15.1306 23.0526 18.6574 18.8511 19.695C15.1724 20.6036 10.9422 18.7585 9.0309 15.3965C8.31151 14.1311 7.96584 12.7745 7.81582 11.3578C7.67399 10.0186 8.5483 8.91516 9.78043 8.79589C10.9641 8.68132 11.9488 9.56107 12.0953 10.9108C12.3533 13.2866 13.5296 14.8965 15.9814 15.5512ZM12.9242 15.041C12.0571 14.2061 11.5053 13.1934 11.2454 12.0265C11.15 11.5979 11.1426 11.149 11.036 10.724C10.8777 10.0923 10.4602 9.74006 9.78193 9.84098C9.10506 9.9417 8.8416 10.3899 8.84411 11.0479C8.8601 15.2406 12.3164 19.0118 17.0022 18.921C21.2921 18.8378 24.4884 15.6411 24.8832 11.4188C24.9676 10.517 24.6119 9.93601 23.9138 9.83529C23.1585 9.72632 22.6493 10.203 22.5578 11.1772C22.3384 13.5115 21.2288 15.2376 19.0433 16.1581C16.8449 17.0841 14.8348 16.6259 12.9242 15.041Z" fill="url(#paint1_linear_66_333)"/>
<path d="M77.7166 14.8634C77.6301 15.4099 77.9562 16.0205 77.2702 16.2515C76.4165 16.5391 75.9522 16.1976 75.9467 15.2864C75.936 13.4872 75.9539 11.6879 75.9336 9.88889C75.913 8.05933 74.9746 6.98753 73.4122 6.96061C71.6956 6.93103 70.5677 8.03903 70.5212 9.88987C70.476 11.688 70.494 13.4879 70.5008 15.287C70.5031 15.897 70.4025 16.2938 69.6256 16.3057C68.8167 16.318 68.6878 15.9434 68.6927 15.2678C68.7133 12.4587 68.6988 9.64936 68.7005 6.8401C68.7014 5.44924 68.7419 5.41858 70.1778 5.62986C70.3806 5.78546 70.3331 6.02049 70.3545 6.23317C70.3759 6.4468 70.3898 6.66118 70.41 6.91207C73.2766 4.71676 75.0054 4.77966 77.1598 7.11028C77.4068 7.16399 77.4801 6.95012 77.5992 6.81777C78.8161 5.46557 80.6801 4.96001 82.3532 5.51757C84.1385 6.11251 84.8671 7.49793 84.9474 9.21433C85.046 11.3247 84.9699 13.4428 84.9921 15.5573C84.9994 16.2505 84.5811 16.2834 84.0575 16.293C83.4776 16.3038 83.1749 16.1222 83.1793 15.4868C83.1929 13.53 83.2011 11.5724 83.1602 9.61618C83.1214 7.76094 81.9594 6.78105 80.1218 6.98127C78.838 7.12117 77.8249 8.2104 77.7679 9.65941C77.701 11.3615 77.7297 13.0673 77.7166 14.8634Z" fill="url(#paint2_linear_66_333)"/>
<path d="M59.7462 5.59474C62.423 6.63898 63.6627 8.6426 63.5 11.565C63.3782 13.7525 61.6277 15.8003 59.2658 16.3295C57.1057 16.8136 55.1438 16.3123 53.6913 14.5802C52.1548 12.7478 51.8577 10.6191 52.8875 8.47237C53.8434 6.47943 55.509 5.37129 57.801 5.34299C58.437 5.33514 59.0654 5.35631 59.7462 5.59474ZM61.6998 10.8211C61.6836 9.19497 60.9908 7.93967 59.5082 7.24872C58.2271 6.65168 56.9103 6.72233 55.734 7.56852C54.2108 8.66422 53.7055 10.8748 54.5139 12.6757C55.2682 14.3561 56.8939 15.1656 58.8095 14.8148C60.4698 14.5107 61.5912 13.0276 61.6998 10.8211Z" fill="url(#paint3_linear_66_333)"/>
<path d="M40.275 8.12212C39.6732 8.94072 39.6575 9.8292 39.6516 10.7144C39.6417 12.2281 39.636 13.742 39.6514 15.2556C39.6581 15.9114 39.5369 16.3178 38.7148 16.3046C37.9123 16.2918 37.882 15.8648 37.8844 15.2728C37.8959 12.403 37.8876 9.53314 37.8894 6.6633C37.8897 6.10525 37.7637 5.53141 38.6888 5.51581C39.5808 5.50078 39.5651 6.00475 39.5461 6.60604C39.5423 6.72573 39.5685 6.84636 39.5952 7.10534C40.5076 6.10644 41.4735 5.39799 42.788 5.34794C45.5266 5.24366 47.1372 6.58445 47.2909 9.31273C47.4078 11.3877 47.3116 13.4741 47.332 15.5552C47.3387 16.2465 46.9204 16.2785 46.3969 16.29C45.8102 16.3028 45.5192 16.1084 45.5244 15.4797C45.5394 13.6507 45.5307 11.8215 45.5151 9.99246C45.5046 8.75795 45.1958 7.66044 43.9222 7.13144C42.6932 6.62099 41.3314 6.99068 40.275 8.12212Z" fill="url(#paint4_linear_66_333)"/>
<path d="M100.021 7.12597C100.021 9.80699 100.023 12.395 100.02 14.9829C100.018 16.3981 99.9269 16.4656 98.4682 16.1606C98.2691 15.7492 98.4365 15.2919 98.3043 14.7674C97.4974 15.6097 96.6462 16.3262 95.4765 16.4552C92.5113 16.7823 90.7288 15.2452 90.6135 12.173C90.5413 10.2505 90.6155 8.32289 90.5878 6.39811C90.5782 5.73247 90.8488 5.51991 91.4909 5.52259C92.1141 5.52519 92.4195 5.69221 92.4081 6.37813C92.3786 8.14499 92.3931 9.91278 92.4054 11.6801C92.4185 13.5779 93.2442 14.6899 94.7218 14.8318C96.6257 15.0146 97.9061 14.0859 98.2263 12.195C98.5495 10.2865 98.2914 8.35388 98.3636 6.43346C98.3932 5.64563 99.1459 5.17886 99.7606 5.62227C100.244 5.97081 99.9467 6.55676 100.021 7.12597Z" fill="url(#paint5_linear_66_333)"/>
</g>
<defs>
<linearGradient id="paint0_linear_66_333" x1="1.00012" y1="6.99988" x2="24.9999" y2="7.07313" gradientUnits="userSpaceOnUse">
<stop stop-color="#E3E3E3"/>
<stop offset="1" stop-color="#EEEEEE"/>
</linearGradient>
<linearGradient id="paint1_linear_66_333" x1="1.00012" y1="6.99988" x2="24.9999" y2="7.07313" gradientUnits="userSpaceOnUse">
<stop stop-color="#E3E3E3"/>
<stop offset="1" stop-color="#EEEEEE"/>
</linearGradient>
<linearGradient id="paint2_linear_66_333" x1="38" y1="3.5" x2="108" y2="15" gradientUnits="userSpaceOnUse">
<stop stop-color="#ECECEC"/>
<stop offset="1" stop-color="#E6E6E6"/>
</linearGradient>
<linearGradient id="paint3_linear_66_333" x1="38" y1="3.5" x2="108" y2="15" gradientUnits="userSpaceOnUse">
<stop stop-color="#ECECEC"/>
<stop offset="1" stop-color="#E6E6E6"/>
</linearGradient>
<linearGradient id="paint4_linear_66_333" x1="38" y1="3.5" x2="108" y2="15" gradientUnits="userSpaceOnUse">
<stop stop-color="#ECECEC"/>
<stop offset="1" stop-color="#E6E6E6"/>
</linearGradient>
<linearGradient id="paint5_linear_66_333" x1="38" y1="3.5" x2="108" y2="15" gradientUnits="userSpaceOnUse">
<stop stop-color="#ECECEC"/>
<stop offset="1" stop-color="#E6E6E6"/>
</linearGradient>
</defs>
</svg>
